<svg width="157" height="26" viewBox="0 0 157 26" fill="none" xmlns="http://www.w3.org/2000/svg"><path fill-rule="evenodd" clip-rule="evenodd" d="M40.206 4.717V0H1.504v5.2h27.003L.984 21.283V26H40.95l.929-5.2H12.72L40.206 4.717zm12.74 10.772h25.405l.892-4.978H52.946v-5.31h27.411l.929-5.2H49.603v.036h-2.6V26h35.063l.928-5.2H52.946v-5.312zM97.183.037h-6.018L86.709 26h32.166v-5.2H93.618L97.183.036zM155.83 5.2l.929-5.2h-30.197v.037h-2.6V26h5.943V15.488h23.92l.891-4.977h-24.811V5.2h25.925z" fill="#fff"/></svg>