<svg width="52" height="59" viewBox="0 0 52 59" fill="none" xmlns="http://www.w3.org/2000/svg"><path fill-rule="evenodd" clip-rule="evenodd" d="M6.029.489H45.23c3.306 0 5.998 2.691 5.998 6.026V59l-6.29-5.559-3.54-3.276-3.745-3.482 1.55 5.413H6.03c-3.306 0-5.998-2.692-5.998-6.027V6.515C.031 3.18 2.723.49 6.03.49zm25.979 35.838a123.67 123.67 0 001.93 2.37c6.466-.205 8.953-4.447 8.953-4.447 0-9.42-4.213-17.056-4.213-17.056-4.213-3.16-8.22-3.072-8.22-3.072l-.41.468c4.973 1.521 7.284 3.715 7.284 3.715a23.848 23.848 0 00-8.806-2.808 24.758 24.758 0 00-5.91.058c-.153 0-.284.023-.431.048l-.066.01c-1.024.089-3.51.469-6.64 1.844-1.083.497-1.727.848-1.727.848s2.428-2.31 7.694-3.832l-.292-.351s-4.008-.088-8.221 3.072c0 0-4.213 7.635-4.213 17.056 0 0 2.458 4.242 8.923 4.447 0 0 1.083-1.317 1.96-2.429-3.715-1.111-5.12-3.452-5.12-3.452s.293.205.82.498c.029.029.058.058.117.087.044.03.088.051.131.073.044.022.088.044.132.074.731.41 1.463.731 2.136.994 1.2.468 2.633.936 4.3 1.258 2.194.41 4.769.556 7.577.03a19.257 19.257 0 004.242-1.258 16.747 16.747 0 003.365-1.727s-1.463 2.4-5.295 3.482zM17.35 28.28c0-1.784 1.317-3.247 2.984-3.247 1.668 0 3.014 1.463 2.985 3.247 0 1.785-1.317 3.248-2.985 3.248-1.638 0-2.984-1.463-2.984-3.248zm10.679 0c0-1.784 1.316-3.247 2.984-3.247 1.667 0 2.984 1.463 2.984 3.247 0 1.785-1.317 3.248-2.984 3.248-1.639 0-2.984-1.463-2.984-3.248z" fill="#7289DA"/></svg>