<svg width="88" height="88" viewBox="0 0 88 88" fill="none" xmlns="http://www.w3.org/2000/svg">
<path fill-rule="evenodd" clip-rule="evenodd" d="M25.6084 0.412842L61.5298 0.412842C70.4344 0.412842 73.6634 1.33999 76.9188 3.08099C80.1742 4.82199 82.729 7.37684 84.47 10.6322C86.211 13.8876 87.1382 17.1166 87.1382 26.0212V61.8438C87.1382 70.7484 86.211 73.9774 84.47 77.2328C82.729 80.4881 80.1742 83.043 76.9188 84.784C73.6634 86.525 70.4344 87.4521 61.5298 87.4521H25.6084C16.7038 87.4521 13.4748 86.525 10.2194 84.784C6.964 83.043 4.40915 80.4881 2.66815 77.2328C0.927153 73.9774 0 70.7484 0 61.8438L0 26.0212C0 17.1166 0.927153 13.8876 2.66815 10.6322C4.40915 7.37684 6.964 4.82199 10.2194 3.08099C13.4748 1.33999 16.7038 0.412842 25.6084 0.412842Z" fill="white"/>
<path d="M44.2714 13.0886C26.0576 13.0886 11.2852 26.7414 11.2852 43.5895C11.2852 53.1754 16.061 61.724 23.5396 67.3179V78.987L34.7952 72.8122C37.8 73.6421 40.9727 74.0903 44.2714 74.0903C62.4851 74.0903 77.2576 60.4375 77.2576 43.5895C77.2576 26.7414 62.4851 13.0886 44.2714 13.0886ZM47.7463 53.9888L39.2101 45.2245L22.7842 54.2129L40.7965 35.3148L49.3242 44.0791L65.7502 35.0907L47.7463 53.9888Z" fill="url(#paint0_linear)"/>
<defs>
<linearGradient id="paint0_linear" x1="44.2714" y1="78.987" x2="44.2714" y2="13.0889" gradientUnits="userSpaceOnUse">
<stop offset="0.1137" stop-color="#006DFF"/>
<stop offset="0.9493" stop-color="#00C6FF"/>
</linearGradient>
</defs>
</svg>
