<svg width="89" height="89" viewBox="0 0 89 89" fill="none" xmlns="http://www.w3.org/2000/svg">
<path d="M44.9711 88.9571C69.2876 88.9571 89 69.2446 89 44.9281C89 20.6116 69.2876 0.89917 44.9711 0.89917C20.6546 0.89917 0.942139 20.6116 0.942139 44.9281C0.942139 69.2446 20.6546 88.9571 44.9711 88.9571Z" fill="url(#paint0_linear)"/>
<path d="M19.265 44.5461L48.9145 32.33C51.8413 31.0575 61.7669 26.9854 61.7669 26.9854C61.7669 26.9854 66.348 25.2039 65.9662 29.5304C65.839 31.312 64.821 37.5473 63.8029 44.2916L60.6217 64.27C60.6217 64.27 60.3672 67.1968 58.2039 67.7058C56.0406 68.2148 52.4776 65.9243 51.8413 65.4153C51.3323 65.0336 42.2975 59.3072 38.9889 56.5077C38.0982 55.7442 37.0802 54.2172 39.1162 52.4357C43.6972 48.2364 49.169 43.0191 52.4776 39.7105C54.0046 38.1835 55.5316 34.6205 49.169 38.947L31.2266 51.0359C31.2266 51.0359 29.1906 52.3084 25.373 51.1632C21.5555 50.0179 17.1017 48.4909 17.1017 48.4909C17.1017 48.4909 14.0477 46.5821 19.265 44.5461Z" fill="white"/>
<defs>
<linearGradient id="paint0_linear" x1="59.6508" y1="15.5789" x2="37.6363" y2="66.9426" gradientUnits="userSpaceOnUse">
<stop stop-color="#37AEE2"/>
<stop offset="1" stop-color="#1E96C8"/>
</linearGradient>
</defs>
</svg>
