<svg width="56" height="49" viewBox="0 0 56 49" fill="none" xmlns="http://www.w3.org/2000/svg">
<path d="M54.9295 8.56167C55.1395 8.30771 55.1563 7.94556 54.9711 7.6731C54.7858 7.40052 54.4425 7.2826 54.1293 7.3847C52.675 7.8588 51.1607 8.19576 49.5981 8.38547C51.4615 7.25814 52.9988 5.63603 54.0252 3.69862C54.1754 3.41521 54.1261 3.0673 53.9032 2.83682C53.6802 2.60622 53.3343 2.5455 53.0459 2.6858C51.2331 3.56793 49.2943 4.22931 47.2621 4.6327C45.0773 2.28654 41.9676 0.820312 38.5239 0.820312C31.9148 0.820312 26.5537 6.22598 26.5537 12.8949C26.5537 13.8396 26.66 14.7604 26.8656 15.6462C17.8178 15.1873 9.70042 11.1686 3.86458 4.9491C3.46118 4.51905 2.85882 4.33724 2.28494 4.47195C1.71093 4.60666 1.2518 5.03732 1.08228 5.6022C0.750196 6.70969 0.57107 7.88448 0.57107 9.10063C0.57107 13.2922 2.42512 16.9872 5.63637 19.1524C4.76934 19.1244 3.55914 18.8557 2.47842 18.565C1.87558 18.4028 1.23184 18.573 0.788285 19.0126C0.34485 19.452 0.169862 20.0936 0.325988 20.6981C1.48982 25.2034 5.27958 28.7141 9.8187 29.6339C8.81148 29.9108 7.88591 30.0577 6.79351 30.0577C6.79315 30.0577 6.79278 30.0577 6.79242 30.0577C6.30298 30.0577 5.85018 30.3177 5.60376 30.7406C5.35734 31.1636 5.35503 31.685 5.59609 32.111C7.62781 35.7033 11.4518 38.1468 15.8202 38.2298C11.7231 41.4666 6.57654 43.3955 0.970575 43.3955C0.967167 43.3955 0.963638 43.3955 0.960231 43.3955C0.640676 43.3954 0.36213 43.6129 0.284858 43.923C0.207585 44.2332 0.351665 44.5558 0.633861 44.7058C5.36525 47.2211 10.7561 48.6525 16.4756 48.6525C38.4919 48.6525 50.5343 30.2511 50.5343 14.2959C50.5343 13.7704 50.5229 13.2536 50.5002 12.7339C52.1421 11.5362 53.6327 10.1312 54.9295 8.56167Z" fill="#00ACEE"/>
</svg>
