<svg width="89" height="88" viewBox="0 0 89 88" fill="none" xmlns="http://www.w3.org/2000/svg">
<path fill-rule="evenodd" clip-rule="evenodd" d="M26.185 0L62.4471 0C71.4362 0 74.6958 0.935947 77.9821 2.69346C81.2683 4.45097 83.8474 7.03005 85.6049 10.3163C87.3624 13.6026 88.2984 16.8622 88.2984 25.8513V62.0136C88.2984 71.0026 87.3624 74.2623 85.6049 77.5485C83.8474 80.8348 81.2683 83.4139 77.9821 85.1714C74.6958 86.9289 71.4362 87.8648 62.4471 87.8648H26.185C17.196 87.8648 13.9363 86.9289 10.6501 85.1714C7.36379 83.4139 4.78471 80.8348 3.0272 77.5485C1.26969 74.2623 0.33374 71.0026 0.33374 62.0136L0.33374 25.8513C0.33374 16.8622 1.26969 13.6026 3.0272 10.3163C4.78471 7.03005 7.36379 4.45097 10.6501 2.69346C13.9363 0.935947 17.196 0 26.185 0Z" fill="#665CAC"/>
<path d="M67.4661 18.8858C65.9407 17.467 59.7928 12.9303 46.1003 12.865C46.1003 12.865 29.945 11.8755 22.0695 19.2125C17.6861 23.6652 16.1422 30.1808 15.986 38.2646C15.8206 46.3485 15.6092 61.48 29.9818 65.5873H29.991L29.9818 71.8508C29.9818 71.8508 29.8899 74.3899 31.5348 74.9033C33.5198 75.5287 34.6868 73.6058 36.5891 71.5241C37.6275 70.3853 39.0703 68.705 40.1546 67.4262C49.9783 68.2663 57.5414 66.3434 58.396 66.0633C60.381 65.4099 71.6106 63.9444 73.4302 48.8128C75.3141 33.2146 72.5112 23.3385 67.4661 18.8858ZM69.1295 47.6927C67.5856 60.3318 58.4787 61.1346 56.8062 61.676C56.0894 61.9094 49.4545 63.5896 41.1104 63.0296C41.1104 63.0296 34.889 70.6467 32.95 72.6349C32.6467 72.943 32.2884 73.0737 32.0494 73.0083C31.7186 72.9243 31.6267 72.5229 31.6267 71.9348C31.6359 71.0947 31.6818 61.5267 31.6818 61.5267C31.6726 61.5267 31.6726 61.5267 31.6818 61.5267C19.5332 58.1008 20.2408 45.2096 20.3786 38.4607C20.5165 31.7117 21.7663 26.1856 25.4697 22.4704C32.1321 16.3468 45.8522 17.2616 45.8522 17.2616C57.4403 17.3176 62.9908 20.8555 64.2773 22.041C68.5413 25.7655 70.7193 34.6614 69.1295 47.6927Z" fill="white"/>
<path d="M51.7331 37.9195C51.5861 34.8297 50.0422 33.2148 47.1016 33.0562" stroke="white" stroke-width="1.45098" stroke-linecap="round" stroke-linejoin="round"/>
<path d="M55.7039 39.2733C55.7682 36.3983 54.932 33.9992 53.186 32.067C51.4399 30.1347 49.0231 29.0612 45.917 28.8372" stroke="white" stroke-width="1.45098" stroke-linecap="round" stroke-linejoin="round"/>
<path d="M59.7746 40.8892C59.7379 35.8951 58.2675 31.9746 55.3728 29.0995C52.4781 26.2337 48.8666 24.7775 44.5566 24.7495" stroke="white" stroke-width="1.45098" stroke-linecap="round" stroke-linejoin="round"/>
<path d="M47.2587 48.4593C47.2587 48.4593 48.3523 48.5526 48.9312 47.8152L50.0707 46.359C50.6221 45.6309 51.9546 45.1735 53.2595 45.9109C53.9855 46.331 55.2904 47.1431 56.0991 47.7498C56.9629 48.3939 58.7365 49.8968 58.7365 49.8968C59.5819 50.6156 59.7749 51.6797 59.2052 52.7999C59.2052 52.8092 59.196 52.8186 59.196 52.8186C58.6078 53.8734 57.8175 54.8722 56.8159 55.7963C56.8067 55.8057 56.8067 55.8057 56.7975 55.815C55.9796 56.5058 55.1709 56.9072 54.3806 57.0005C54.2887 57.0192 54.1693 57.0285 54.0314 57.0192C53.6822 57.0192 53.3422 56.9725 53.0022 56.8605L52.9746 56.8232C51.7524 56.4778 49.7215 55.6003 46.3305 53.7054C44.125 52.4732 42.2963 51.213 40.7525 49.9622C39.9346 49.3087 39.0983 48.562 38.2437 47.7032C38.2161 47.6752 38.1886 47.6472 38.161 47.6192C38.1334 47.5912 38.1058 47.5632 38.0783 47.5351C38.0507 47.5071 38.0231 47.4791 37.9956 47.4511C37.968 47.4231 37.9404 47.3951 37.9129 47.3671C37.0674 46.499 36.3323 45.6495 35.689 44.8188C34.4576 43.2505 33.217 41.3836 32.004 39.1526C30.1385 35.7081 29.2746 33.6451 28.9346 32.4036L28.8979 32.3756C28.7876 32.0302 28.7325 31.6849 28.7416 31.3301C28.7325 31.1901 28.7416 31.0688 28.76 30.9754C28.8519 30.1726 29.2471 29.3512 29.9271 28.5204C29.9363 28.5111 29.9363 28.5111 29.9455 28.5017C30.8553 27.4842 31.8293 26.6815 32.877 26.084C32.8862 26.084 32.8953 26.0747 32.8953 26.0747C33.9981 25.496 35.0457 25.692 35.7533 26.5508C35.7625 26.5601 37.2328 28.3524 37.8669 29.2298C38.4642 30.0606 39.2729 31.3768 39.6773 32.1143C40.4032 33.4398 39.953 34.7933 39.2362 35.3534L37.8026 36.5109C37.0766 37.1083 37.1685 38.2098 37.1685 38.2098C37.1685 38.2098 39.3005 46.3963 47.2587 48.4593Z" fill="white"/>
</svg>
