<svg width="52" height="55" viewBox="0 0 52 55" fill="none" xmlns="http://www.w3.org/2000/svg">
<path d="M45.4575 5.66517C44.1162 4.42751 38.6957 0.4926 26.6221 0.439141C26.6221 0.439141 12.3842 -0.419443 5.44338 5.94704C1.57974 9.81148 0.220587 15.466 0.0772197 22.4764C-0.0661478 29.4868 -0.251636 42.6248 12.4125 46.1871H12.4246L12.4165 51.6229C12.4165 51.6229 12.3356 53.8237 13.7846 54.2724C15.5374 54.8167 16.5661 53.1441 18.2395 51.3411C19.1581 50.3513 20.4265 48.8973 21.3823 47.786C30.0435 48.515 36.7048 46.8489 37.4613 46.6026C39.2101 46.0357 49.1057 44.768 50.7151 31.6309C52.3764 18.0903 49.9116 9.52556 45.4575 5.66517Z" fill="white"/>
<path d="M42.641 8.40047C41.507 7.37017 36.6123 4.29465 26.3992 4.2501C26.3992 4.2501 14.3053 3.4555 8.43448 8.77306C5.16699 11.9992 4.06622 16.7968 3.94553 22.6514C3.82484 28.5059 3.19953 39.6902 13.9084 42.6653C13.9084 42.6653 13.8662 50.9685 13.8614 51.6983C13.8614 52.2086 13.9424 52.5577 14.234 52.6298C14.4438 52.6808 14.758 52.5723 15.0253 52.3058C16.7377 50.5862 22.2196 43.9726 22.2196 43.9726C29.5751 44.453 35.4273 43.0007 36.0566 42.7949C37.5405 42.3178 45.5667 41.6285 46.925 30.6565C48.3288 19.3466 46.4091 11.6266 42.641 8.40047Z" fill="#7360F2"/>
<path fill-rule="evenodd" clip-rule="evenodd" d="M24.589 10.7397C24.5916 10.3626 24.8995 10.0591 25.2766 10.0617C29.2392 10.0893 32.5887 11.4085 35.2779 14.0301C37.9897 16.6736 39.3307 20.2725 39.3647 24.7423C39.3676 25.1194 39.0642 25.4275 38.6871 25.4303C38.31 25.4332 38.002 25.1298 37.9991 24.7527C37.9673 20.5643 36.7212 17.3442 34.3247 15.008C31.9056 12.6498 28.9021 11.4526 25.2671 11.4273C24.89 11.4247 24.5864 11.1168 24.589 10.7397ZM25.7944 14.2367C25.822 13.8606 26.1492 13.578 26.5253 13.6056C29.3927 13.8154 31.7007 14.7952 33.3819 16.6303L33.3821 16.6306C35.045 18.4476 35.8354 20.7081 35.778 23.3594C35.7698 23.7364 35.4576 24.0355 35.0805 24.0273C34.7035 24.0191 34.4045 23.7069 34.4127 23.3299C34.4633 20.9917 33.7757 19.0834 32.3747 17.5525C30.9779 16.028 29.0254 15.1578 26.4256 14.9676C26.0495 14.94 25.7669 14.6128 25.7944 14.2367ZM26.8295 17.9154C26.8492 17.5388 27.1704 17.2494 27.547 17.269C28.956 17.3425 30.1282 17.769 30.9631 18.6323C31.7948 19.4922 32.2025 20.6935 32.2741 22.1363C32.2928 22.513 32.0026 22.8334 31.626 22.8521C31.2493 22.8708 30.9288 22.5806 30.9101 22.204C30.8489 20.9689 30.51 20.1282 29.9815 19.5817C29.4562 19.0385 28.6545 18.6943 27.4758 18.6328C27.0992 18.6132 26.8099 18.292 26.8295 17.9154Z" fill="white"/>
<path d="M27.6467 31.3158C27.6467 31.3158 28.6065 31.3968 29.1233 30.7601L30.1309 29.4925C30.6169 28.8639 31.7897 28.463 32.9383 29.1029C33.799 29.5938 34.6346 30.1274 35.442 30.7018C36.2042 31.2623 37.765 32.5648 37.7699 32.5648C38.5134 33.1925 38.6851 34.1143 38.1789 35.0863C38.1789 35.0919 38.1749 35.1017 38.1749 35.1065C37.6173 36.0731 36.9094 36.9447 36.0778 37.6887C36.0681 37.6936 36.0681 37.6985 36.0592 37.7033C35.3367 38.307 34.6268 38.6502 33.9297 38.7328C33.8271 38.7508 33.7228 38.7573 33.6187 38.7523C33.3113 38.7552 33.0054 38.7082 32.7131 38.6129L32.6904 38.5797C31.6164 38.2768 29.8231 37.5186 26.8367 35.8711C25.1085 34.929 23.4632 33.8421 21.9184 32.6223C21.1442 32.0112 20.4056 31.3562 19.7064 30.6605L19.6318 30.586L19.5573 30.5115L19.4828 30.4369C19.4577 30.4126 19.4334 30.3875 19.4083 30.3624C18.7126 29.6632 18.0576 28.9246 17.4465 28.1503C16.2268 26.6058 15.14 24.9607 14.1976 23.2329C12.5501 20.2457 11.792 18.454 11.489 17.3783L11.4558 17.3557C11.3609 17.0633 11.3141 16.7575 11.3173 16.4501C11.3117 16.346 11.3179 16.2417 11.336 16.1391C11.4229 15.443 11.7666 14.7327 12.3671 14.008C12.3719 13.9991 12.3768 13.9991 12.3817 13.9894C13.1255 13.1578 13.9972 12.4501 14.9639 11.8931C14.9687 11.8931 14.9785 11.8883 14.9841 11.8883C15.9561 11.382 16.8779 11.5537 17.5048 12.2932C17.5097 12.2981 18.8097 13.859 19.3678 14.6212C19.9423 15.4293 20.4759 16.2657 20.9667 17.1272C21.6066 18.275 21.2056 19.4503 20.5771 19.9347L19.3095 20.9423C18.6696 21.4591 18.7538 22.4189 18.7538 22.4189C18.7538 22.4189 20.6314 29.5249 27.6467 31.3158Z" fill="white"/>
</svg>
