<svg width="86" height="87" viewBox="0 0 86 87" fill="none" xmlns="http://www.w3.org/2000/svg">
<path d="M0 86.7075L6.06917 64.5532C-3.58422 47.7811 -0.772151 26.6168 12.9259 12.9474C26.624 -0.721929 47.7942 -3.48958 64.5459 6.19897C81.2977 15.8875 89.456 35.6176 84.4387 54.3076C79.4214 72.9976 62.4789 85.9894 43.1272 85.9861C35.9882 85.9863 28.9628 84.1981 22.6927 80.7847L0 86.7075ZM23.7226 73.0218L25.019 73.7954C30.4968 77.0381 36.7458 78.748 43.1115 78.7459C59.3217 78.7423 73.4763 67.7726 77.5245 52.076C81.5727 36.3795 74.4891 19.9323 60.3026 12.0892C46.1162 4.24615 28.4205 6.99397 17.2805 18.7698C6.14044 30.5456 4.37803 48.3665 12.9957 62.0962L13.8425 63.4397L10.2512 76.5504L23.7226 73.0218Z" fill="white"/>
<path d="M1.49097 85.2169L7.34581 63.831C-1.98958 47.6398 0.712681 27.1972 13.9345 13.9878C27.1562 0.778317 47.6014 -1.90484 63.7839 7.44567C79.9663 16.7962 87.8519 35.8493 83.0105 53.901C78.169 71.9527 61.8075 84.5028 43.1178 84.5007C36.2259 84.5003 29.4436 82.7751 23.3891 79.4823L1.49097 85.2169Z" fill="url(#paint0_linear)"/>
<path d="M0 86.7073L6.06917 64.553C-3.58422 47.781 -0.772151 26.6167 12.9259 12.9473C26.624 -0.722051 47.7942 -3.48971 64.5459 6.19884C81.2977 15.8874 89.456 35.6175 84.4387 54.3075C79.4214 72.9975 62.4789 85.9893 43.1272 85.9859C35.9882 85.9862 28.9628 84.1979 22.6927 80.7845L0 86.7073ZM23.7226 73.0217L25.019 73.7953C30.4968 77.038 36.7458 78.7478 43.1115 78.7458C59.3217 78.7422 73.4763 67.7725 77.5245 52.0759C81.5727 36.3794 74.4891 19.9322 60.3026 12.0891C46.1162 4.24602 28.4205 6.99385 17.2805 18.7697C6.14044 30.5455 4.37803 48.3663 12.9957 62.0961L13.8425 63.4396L10.2512 76.5502L23.7226 73.0217Z" fill="url(#paint1_linear)"/>
<path fill-rule="evenodd" clip-rule="evenodd" d="M32.4371 25.3158C31.6373 23.5384 30.7957 23.5018 30.0325 23.4705C29.4104 23.4443 28.6942 23.4443 27.9833 23.4443C26.8884 23.4729 25.8553 23.9581 25.1343 24.7826C22.6984 27.0904 21.3425 30.3143 21.3966 33.6694C21.3966 38.9283 25.2231 44.0095 25.7563 44.7204C26.2895 45.4314 33.1481 56.566 44.0109 60.8526C53.0388 64.4125 54.8737 63.7014 56.834 63.5238C58.7944 63.3461 63.1541 60.9414 64.048 58.4479C64.9419 55.9544 64.9367 53.8111 64.6701 53.3667C64.4035 52.9224 63.6926 52.6506 62.6209 52.1174C61.5493 51.5842 56.3008 48.9808 55.3024 48.6411C54.3039 48.3013 53.6139 48.1183 52.8977 49.1638C52.1815 50.2093 50.1428 52.6349 49.5155 53.3458C48.8882 54.0568 48.2713 54.1457 47.1997 53.6124C44.0508 52.3573 41.1445 50.5637 38.6109 48.3117C36.2738 46.151 34.2692 43.6567 32.6619 40.9095C32.0398 39.864 32.5992 39.2629 33.1324 38.7296C33.6656 38.1964 34.1779 37.4803 34.7372 36.8582C35.1697 36.3174 35.5218 35.717 35.7828 35.0756C36.0705 34.4767 36.0371 33.7731 35.6939 33.2041C35.4639 32.7128 33.3885 27.4277 32.4371 25.3158Z" fill="white"/>
<defs>
<linearGradient id="paint0_linear" x1="42.9453" y1="85.2169" x2="42.9453" y2="1.93176" gradientUnits="userSpaceOnUse">
<stop stop-color="#20B038"/>
<stop offset="1" stop-color="#60D66A"/>
</linearGradient>
<linearGradient id="paint1_linear" x1="42.9442" y1="86.7126" x2="42.9442" y2="0.437329" gradientUnits="userSpaceOnUse">
<stop stop-color="#F9F9F9"/>
<stop offset="1" stop-color="white"/>
</linearGradient>
</defs>
</svg>
