<svg width="88" height="88" viewBox="0 0 88 88" fill="none" xmlns="http://www.w3.org/2000/svg"><path fill-rule="evenodd" clip-rule="evenodd" d="M25.608.413H61.53c8.904 0 12.133.927 15.389 2.668a18.151 18.151 0 017.551 7.551c1.741 3.256 2.668 6.485 2.668 15.39v35.822c0 8.904-.927 12.133-2.668 15.389a18.152 18.152 0 01-7.551 7.551c-3.256 1.741-6.485 2.668-15.39 2.668H25.61c-8.905 0-12.134-.927-15.39-2.668a18.152 18.152 0 01-7.55-7.551C.926 73.977 0 70.748 0 61.843V26.022c0-8.904.927-12.133 2.668-15.389a18.151 18.151 0 017.551-7.551C13.475 1.34 16.704.413 25.61.413z" fill="#fff"/><path d="M44.271 13.089c-18.213 0-32.986 13.652-32.986 30.5 0 9.586 4.776 18.135 12.255 23.729v11.669l11.255-6.175a35.522 35.522 0 009.476 1.278c18.214 0 32.987-13.653 32.987-30.5 0-16.849-14.773-30.501-32.987-30.501zm3.475 40.9l-8.536-8.764-16.426 8.988 18.013-18.898 8.527 8.764 16.426-8.988-18.004 18.898z" fill="url(#paint0_linear)"/><defs><linearGradient id="paint0_linear" x1="44.271" y1="78.987" x2="44.271" y2="13.089" gradientUnits="userSpaceOnUse"><stop offset=".114" stop-color="#006DFF"/><stop offset=".949" stop-color="#00C6FF"/></linearGradient></defs></svg>