<svg width="35" height="36" viewBox="0 0 35 36" fill="none" xmlns="http://www.w3.org/2000/svg"><path d="M17.449 35.577c9.563 0 17.315-7.753 17.315-17.315 0-9.563-7.752-17.315-17.315-17.315C7.886.947.134 8.699.134 18.262c0 9.562 7.752 17.315 17.315 17.315z" fill="url(#paint0_linear)"/><path d="M7.34 18.111L19 13.307c1.15-.5 5.054-2.102 5.054-2.102s1.802-.7 1.652 1.001c-.05.7-.45 3.153-.851 5.805l-1.251 7.857s-.1 1.151-.951 1.351c-.85.2-2.252-.7-2.502-.9-.2-.15-3.753-2.403-5.054-3.503-.35-.3-.751-.901.05-1.602A191.218 191.218 0 0020.4 16.21c.6-.6 1.201-2.002-1.301-.3l-7.056 4.754s-.8.5-2.302.05c-1.501-.45-3.253-1.051-3.253-1.051s-1.201-.75.85-1.552z" fill="#fff"/><defs><linearGradient id="paint0_linear" x1="23.222" y1="6.72" x2="14.564" y2="26.919" gradientUnits="userSpaceOnUse"><stop stop-color="#37AEE2"/><stop offset="1" stop-color="#1E96C8"/></linearGradient></defs></svg>