<svg width="89" height="88" viewBox="0 0 89 88" fill="none" xmlns="http://www.w3.org/2000/svg"><path fill-rule="evenodd" clip-rule="evenodd" d="M26.185 0h36.262c8.99 0 12.249.936 15.535 2.693a18.324 18.324 0 017.623 7.623c1.757 3.287 2.693 6.546 2.693 15.535v36.163c0 8.989-.936 12.248-2.693 15.535a18.323 18.323 0 01-7.623 7.622c-3.286 1.758-6.546 2.694-15.535 2.694H26.185c-8.989 0-12.249-.936-15.535-2.694a18.323 18.323 0 01-7.623-7.623C1.27 74.263.334 71.004.334 62.015V25.85c0-8.989.936-12.248 2.693-15.535a18.323 18.323 0 017.623-7.623C13.936.936 17.196 0 26.185 0z" fill="#665CAC"/><path d="M67.466 18.886c-1.525-1.419-7.673-5.956-21.366-6.021 0 0-16.155-.99-24.03 6.347-4.384 4.453-5.928 10.969-6.084 19.053-.165 8.084-.377 23.215 13.996 27.322h.009l-.01 6.264s-.091 2.539 1.554 3.052c1.985.626 3.152-1.297 5.054-3.379 1.038-1.139 2.481-2.819 3.566-4.098 9.823.84 17.386-1.083 18.241-1.363 1.985-.653 13.215-2.119 15.034-17.25 1.884-15.598-.919-25.475-5.964-29.927zm1.663 28.807c-1.543 12.639-10.65 13.442-12.323 13.983-.717.233-7.351 1.914-15.696 1.354 0 0-6.221 7.617-8.16 9.605-.303.308-.662.439-.9.373-.331-.084-.423-.485-.423-1.073.009-.84.055-10.408.055-10.408-.01 0-.01 0 0 0C19.533 58.1 20.24 45.21 20.379 38.46c.137-6.75 1.387-12.275 5.09-15.99 6.663-6.124 20.383-5.21 20.383-5.21 11.588.057 17.139 3.595 18.425 4.78 4.264 3.724 6.442 12.62 4.852 25.652z" fill="#fff"/><path d="M51.733 37.92c-.147-3.09-1.69-4.705-4.631-4.864m8.602 6.217c.064-2.875-.772-5.274-2.518-7.206-1.746-1.932-4.163-3.006-7.269-3.23" stroke="#fff" stroke-width="1.451" stroke-linecap="round" stroke-linejoin="round"/><path d="M59.775 40.89c-.037-4.995-1.508-8.915-4.402-11.79-2.895-2.866-6.506-4.323-10.816-4.35" stroke="#fff" stroke-width="1.451" stroke-linecap="round" stroke-linejoin="round"/><path d="M47.259 48.46s1.093.093 1.672-.645l1.14-1.456c.551-.728 1.884-1.186 3.189-.448.726.42 2.03 1.232 2.84 1.839.863.644 2.636 2.147 2.636 2.147.846.719 1.039 1.783.47 2.903 0 .01-.01.019-.01.019-.588 1.054-1.378 2.053-2.38 2.977l-.019.019c-.817.69-1.626 1.092-2.416 1.186-.092.018-.212.028-.35.018-.349 0-.689-.047-1.029-.158l-.027-.038c-1.223-.345-3.254-1.223-6.645-3.118-2.205-1.232-4.034-2.492-5.578-3.743a29.663 29.663 0 01-2.508-2.259l-.083-.084a32.792 32.792 0 01-.165-.168l-.083-.084a29.834 29.834 0 01-2.224-2.548c-1.231-1.569-2.472-3.435-3.685-5.666-1.865-3.445-2.73-5.508-3.07-6.75l-.036-.027a3.14 3.14 0 01-.156-1.046 1.4 1.4 0 01.018-.355c.092-.802.487-1.624 1.167-2.455l.018-.018c.91-1.018 1.884-1.82 2.932-2.418.01 0 .018-.01.018-.01 1.103-.578 2.15-.382 2.858.477.01.01 1.48 1.801 2.114 2.679.597.83 1.406 2.147 1.81 2.884.726 1.326.276 2.68-.44 3.24l-1.434 1.157c-.726.597-.634 1.699-.634 1.699s2.132 8.186 10.09 10.25z" fill="#fff"/></svg>