<svg width="129" height="54" fill="none" xmlns="http://www.w3.org/2000/svg"><rect x="1.846" y="1.846" width="125.737" height="50.309" rx="11.154" stroke="#999" stroke-width="2.309"/><path fill-rule="evenodd" clip-rule="evenodd" d="M44.036 17.475c.73-.908 1.226-2.128 1.095-3.374-1.07.053-2.374.701-3.13 1.61-.677.778-1.277 2.05-1.121 3.243 1.2.104 2.4-.596 3.156-1.48zM45.117 19.187c-1.743-.103-3.224.984-4.057.984-.833 0-2.107-.932-3.486-.907-1.794.027-3.459 1.035-4.37 2.64-1.872 3.209-.493 7.97 1.328 10.583.884 1.294 1.95 2.718 3.354 2.666 1.327-.051 1.847-.854 3.46-.854 1.612 0 2.08.854 3.485.828 1.457-.025 2.367-1.293 3.252-2.588 1.014-1.474 1.43-2.897 1.456-2.975-.026-.026-2.809-1.088-2.835-4.27-.026-2.665 2.185-3.933 2.289-4.012-1.249-1.836-3.2-2.043-3.876-2.095zM68.92 21.957c0-3.78-2.638-6.376-6.426-6.376h-7.319v19.411h3.03v-6.631H62.4c3.828 0 6.52-2.61 6.52-6.404zm-7.238 3.875h-3.477v-7.708h3.491c2.625 0 4.126 1.399 4.126 3.847s-1.501 3.86-4.14 3.86zM75.097 26.84c-3.517.216-5.425 1.642-5.425 4.13 0 2.502 1.962 4.17 4.776 4.17 1.907 0 3.666-.955 4.465-2.475h.067v2.327h2.8v-9.658c0-2.798-2.259-4.6-5.722-4.6-3.22 0-5.601 1.829-5.683 4.344h2.734c.23-1.197 1.339-1.977 2.868-1.977 1.853 0 2.895.86 2.895 2.435v1.076l-3.775.229zm3.775 1.79v1.09c0 1.815-1.556 3.12-3.612 3.12-1.61 0-2.638-.767-2.638-1.95 0-1.225.987-1.924 2.881-2.045l3.369-.215zM84.355 40.185v-2.327c.19.027.65.053.893.053 1.34 0 2.097-.564 2.557-2.017l.27-.861-5.127-14.125h3.166l3.572 11.461h.067l3.572-11.46h3.085l-5.317 14.837c-1.218 3.403-2.611 4.52-5.56 4.52-.23 0-.975-.027-1.178-.081z" fill="#999"/></svg>