<svg width="231" height="40" viewBox="0 0 231 40" fill="none" xmlns="http://www.w3.org/2000/svg">
<path fill-rule="evenodd" clip-rule="evenodd" d="M58.8659 7.72736V0.762329H1.71982V8.44031H41.5905L0.952026 32.1872V39.1522H59.9628L61.3339 31.4743H18.2823L58.8659 7.72736Z" fill="black"/>
<path fill-rule="evenodd" clip-rule="evenodd" d="M77.6768 23.6315H115.189L116.505 16.2826H77.6768V8.44007H118.151L119.522 0.762085H72.7409V0.816928H68.9019V39.152H120.673L122.045 31.474H77.6768V23.6315Z" fill="black"/>
<path fill-rule="evenodd" clip-rule="evenodd" d="M142.994 0.817017H134.11L127.529 39.1521H175.023V31.4741H137.731L142.994 0.817017Z" fill="black"/>
<path fill-rule="evenodd" clip-rule="evenodd" d="M229.591 8.44007L230.962 0.762085H186.375V0.816928H182.536V39.152H191.311V23.6315H226.63L227.946 16.2826H191.311V8.44007H229.591Z" fill="black"/>
</svg>
