<svg width="157" height="26" viewBox="0 0 157 26" fill="none" xmlns="http://www.w3.org/2000/svg">
<path fill-rule="evenodd" clip-rule="evenodd" d="M40.2064 4.71714V6.10352e-05H1.50412V5.19999H28.5066L0.984131 21.2826V25.9997H40.9493L41.8778 20.7998H12.7211L40.2064 4.71714Z" fill="white"/>
<path fill-rule="evenodd" clip-rule="evenodd" d="M52.9461 15.4885H78.3514L79.2428 10.5115H52.9461V5.20011H80.3571L81.2857 0.000183105H49.6033V0.0373254H47.0033V25.9998H82.0657L82.9942 20.7999H52.9461V15.4885Z" fill="white"/>
<path fill-rule="evenodd" clip-rule="evenodd" d="M97.1825 0.0369873H91.1655L86.7084 25.9995H118.874V20.7995H93.618L97.1825 0.0369873Z" fill="white"/>
<path fill-rule="evenodd" clip-rule="evenodd" d="M155.83 5.19986L156.759 -6.10352e-05H126.562V0.0370813H123.962V25.9996H129.905V15.4883H153.825L154.716 10.5112H129.905V5.19986H155.83Z" fill="white"/>
</svg>
