<svg width="122" height="122" viewBox="0 0 122 122" fill="none" xmlns="http://www.w3.org/2000/svg">
<path d="M61.2768 121.096C94.6795 121.096 121.758 94.0175 121.758 60.6148C121.758 27.2121 94.6795 0.13385 61.2768 0.13385C27.8741 0.13385 0.795898 27.2121 0.795898 60.6148C0.795898 94.0175 27.8741 121.096 61.2768 121.096Z" fill="#00FF46"/>
<path d="M61.2768 90.4445C31.158 90.4445 6.10383 78.0969 0.838135 63.8168C1.65909 79.2919 8.38474 93.8625 19.6292 104.526C30.8736 115.19 45.78 121.134 61.2768 121.134C76.7737 121.134 91.6801 115.19 102.925 104.526C114.169 93.8625 120.895 79.2919 121.716 63.8168C116.45 78.0969 91.3957 90.4445 61.2768 90.4445Z" fill="#FF28FF"/>
<path d="M25.4546 33.2736C33.0221 39.4008 46.2385 43.4569 61.2768 43.4569C76.3151 43.4569 89.5315 39.4008 97.099 33.2736C101.359 29.8282 103.827 25.7264 103.827 21.3193C103.82 19.7204 103.5 18.1384 102.883 16.6632C91.6437 6.02192 76.7544 0.0914917 61.2768 0.0914917C45.7992 0.0914917 30.91 6.02192 19.6708 16.6632C19.0541 18.1384 18.7333 19.7204 18.7268 21.3193C18.7268 25.7264 21.195 29.8282 25.4546 33.2736Z" fill="#FFFF00"/>
</svg>
