<svg width="185" height="26" viewBox="0 0 185 26" fill="none" xmlns="http://www.w3.org/2000/svg">
<rect x="15.7397" y="5.61377" width="4" height="14.7896" rx="2" fill="white"/>
<rect x="7.13998" y="11.043" width="4" height="4" rx="2" fill="white"/>
<rect x="180.708" y="11.043" width="4" height="4" rx="2" fill="white"/>
<rect x="0.742767" y="11.043" width="4" height="4" rx="2" fill="white"/>
<rect x="23.2383" y="0.241211" width="4" height="25.5347" rx="2" fill="white"/>
<rect x="30.7368" y="0.241211" width="4" height="25.5347" rx="2" fill="white"/>
<rect x="38.2353" y="4.77759" width="4" height="16.4619" rx="2" fill="white"/>
<rect x="45.7339" y="7.01294" width="4" height="11.9911" rx="2" fill="white"/>
<rect x="53.2324" y="0.241211" width="4" height="25.5347" rx="2" fill="white"/>
<rect x="60.7309" y="0.241211" width="4" height="25.5347" rx="2" fill="white"/>
<rect x="68.2295" y="3.36572" width="4" height="19.2855" rx="2" fill="white"/>
<rect x="75.728" y="5.61377" width="4" height="14.7896" rx="2" fill="white"/>
<rect x="83.2265" y="5.61377" width="4" height="14.7896" rx="2" fill="white"/>
<rect x="90.7251" y="0.241211" width="4" height="25.5347" rx="2" fill="white"/>
<rect x="98.2236" y="1.46777" width="4" height="23.0816" rx="2" fill="white"/>
<rect x="105.722" y="3.36572" width="4" height="19.2856" rx="2" fill="white"/>
<rect x="113.221" y="0.241211" width="4" height="25.5347" rx="2" fill="white"/>
<rect x="120.719" y="0.241211" width="4" height="25.5347" rx="2" fill="white"/>
<rect x="128.218" y="0.241211" width="4" height="25.5347" rx="2" fill="white"/>
<rect x="135.716" y="0.241211" width="4" height="25.5347" rx="2" fill="white"/>
<rect x="143.215" y="0.241211" width="4" height="25.5347" rx="2" fill="white"/>
<rect x="150.713" y="0.241211" width="4" height="25.5347" rx="2" fill="white"/>
<rect x="158.212" y="0.241211" width="4" height="25.5347" rx="2" fill="white"/>
<rect x="165.71" y="0.241211" width="4" height="25.5347" rx="2" fill="white"/>
<rect x="173.209" y="4.77759" width="4" height="16.4619" rx="2" fill="white"/>
</svg>
